<svg xmlns="http://www.w3.org/2000/svg" viewBox="0 0 101.6 101.6">
  <path d="M10.5 0c5.3-.1 7.4 2.2 9.9 4.8 1.2 1.2 2.5 2.4 3.7 3.6 6.4 6.3 12.7 12.6 19.1 18.8C45 29 50 34.6 51 34.9l5.1-5.1 11.4-11.4c2.6-2.5 5.1-5 7.7-7.6 1.5-1.5 2.9-3.2 4.6-4.5.3-.4.7-.8 1-1.1 1-1 2.1-2.1 3.3-3l.9-.9c.7-.5 1.6-.5 2.5-.8 5.7-1.8 10.3 1.6 12.6 4.9.6.8.7 1.7 1 2.8 2 6.7-2.3 10.3-5.5 13.5-6.8 6.9-13.7 13.8-20.5 20.7-2 2-8.1 7.6-8.4 8.5l7.7 7.7 8.1 8.1c1.4 1.4 2.9 2.7 4.1 4.2 1.2 1.2 2.4 2.3 3.6 3.5 2.2 2.2 4.3 4.5 6.5 6.7 1.2 1.2 2.6 2.3 3.5 3.7.5.7.5 1.6.8 2.5 1.8 5.7-1.6 10.3-4.9 12.6-.7.5-1.9.9-2.8 1.1-6.8 2-10.4-2.7-13.5-5.7C73 88.6 66.1 81.8 59.3 75c-2-2-7.6-8.1-8.5-8.4l-7.6 7.6-7.9 7.9c-1.4 1.4-2.6 2.9-4.1 4-.9.9-1.7 1.8-2.6 2.7-1.3 1.2-2.6 2.5-3.8 3.7-1 1-1.8 2-2.9 2.8-1 .8-1.7 1.9-2.8 2.7-.8.6-1.4 1.6-2.3 2.2-.7.5-1.6.5-2.5.8-5.7 1.8-10.3-1.6-12.6-4.9-.5-.7-.9-1.9-1.1-2.8-2-6.8 2.7-10.4 5.7-13.5C13.1 73 19.8 66 26.6 59.1c2-2 8.1-7.6 8.4-8.5l-9.1-9.1C19.3 35 12.8 28.3 6.2 21.7c-2.5-2.5-7.4-6.5-6-12.2 1-4.1 3.2-7.2 6.7-8.7C7.8.6 8.6.3 9.5.1c.4-.1.8 0 1-.1z" />
</svg>
